STARTFONT   2.1
COMMENT
COMMENT Copyright: "Leon Marrick, 2005.  Freeware.  Share and enjoy!"
COMMENT
FONT -angband-16x24x-medium-r-normal--24-180-96-96-c-160-iso8859-1
SIZE  18  96   96
FONTBOUNDINGBOX 16  24  0  -5
STARTPROPERTIES  4
FONT_ASCENT 19
FONT_DESCENT 5
CAP_HEIGHT 19
DEFAULT_CHAR 8223
ENDPROPERTIES
CHARS  256
STARTCHAR 0  
ENCODING 0
SWIDTH    16000    0 
DWIDTH    16    0 
BBX  16  24  0   -5
BITMAP
0000
0000
0000
0000
0000
0000
0000
0000
0000
0000
0000
0000
0000
0000
0000
0000
0000
0000
0000
0000
0000
0000
0000
0000
ENDCHAR
STARTCHAR 1  
ENCODING 1
SWIDTH    16000    0 
DWIDTH    16    0 
BBX  16  24  0   -5
BITMAP
FFFF
FFFF
FFFF
FFFF
FFFF
FFFF
FFFF
FFFF
FFFF
FFFF
FFFF
FFFF
FFFF
FFFF
FFFF
FFFF
FFFF
FFFF
FFFF
FFFF
FFFF
FFFF
FFFF
FFFF
ENDCHAR
STARTCHAR 2  
ENCODING 2
SWIDTH    16000    0 
DWIDTH    16    0 
BBX  16  24  0   -5
BITMAP
FFFB
DDEE
FFBF
B7FE
FED7
BBFD
FF6F
EAFD
7FB7
F7FF
FF7A
DDDF
FF7B
6BDF
FFFF
DAEE
FFFB
DDEE
FFBF
B7FE
FED7
BBFD
EF6F
7DFF
ENDCHAR
STARTCHAR 3  
ENCODING 3
SWIDTH    16000    0 
DWIDTH    16    0 
BBX  16  24  0   -5
BITMAP
FDFD
5555
AFAF
5555
BBBB
5555
EBEB
9696
FDFD
5555
AFAF
5555
BBBB
5555
EBEB
9696
FDFD
5555
AFAF
5555
BBBB
5555
EBEB
9696
ENDCHAR
STARTCHAR 4  
ENCODING 4
SWIDTH    16000    0 
DWIDTH    16    0 
BBX  16  24  0   -5
BITMAP
0004
2211
0040
4801
0128
4402
0090
1502
8048
0800
0085
2220
0004
94A0
0000
2511
0004
2211
0040
4801
0128
4402
1090
8200
ENDCHAR
STARTCHAR 5  
ENCODING 5
SWIDTH    16000    0 
DWIDTH    16    0 
BBX  16  24  0   -5
BITMAP
4001
0200
1020
0004
4100
0808
8040
0202
2000
0088
0000
4820
0104
0001
0800
0088
4001
0200
1020
0004
4100
0808
8040
0404
ENDCHAR
STARTCHAR 6  
ENCODING 6
SWIDTH    16000    0 
DWIDTH    16    0 
BBX  16  24  0   -5
BITMAP
0404
0000
0000
1000
0008
0100
0000
4000
0002
0080
0000
1010
0000
0000
4000
0400
0002
0040
0000
0000
0808
0000
0080
8000
ENDCHAR
STARTCHAR 7  
ENCODING 7
SWIDTH    16000    0 
DWIDTH    16    0 
BBX  16  24  0   -5
BITMAP
0000
0000
0000
0000
0000
0000
0000
0000
0000
0000
0000
0000
0180
0000
0000
0000
0000
0000
0000
0000
0000
0000
0000
0000
ENDCHAR
STARTCHAR 8  
ENCODING 8
SWIDTH    16000    0 
DWIDTH    16    0 
BBX  16  24  0   -5
BITMAP
0000
0000
0000
0000
0000
0000
0000
0000
0000
0000
0000
0380
0380
0380
0000
0000
0000
0000
0000
0000
0000
0000
0000
0000
ENDCHAR
STARTCHAR 9  
ENCODING 9
SWIDTH    16000    0 
DWIDTH    16    0 
BBX  16  24  0   -5
BITMAP
0000
0000
0000
0000
0000
0000
0000
0000
0000
03C0
07E0
07E0
07E0
07E0
07E0
03C0
0000
0000
0000
0000
0000
0000
0000
0000
ENDCHAR
STARTCHAR 10  
ENCODING 10
SWIDTH    16000    0 
DWIDTH    16    0 
BBX  16  24  0   -5
BITMAP
0000
0000
0000
0000
0000
0000
0000
03C0
0FF0
0FF0
1FF8
1FF8
1FF8
1FF8
1FF8
0FF0
0FF0
03C0
0000
0000
0000
0000
0000
0000
ENDCHAR
STARTCHAR 11  
ENCODING 11
SWIDTH    16000    0 
DWIDTH    16    0 
BBX  16  24  0   -5
BITMAP
0000
0000
0000
0000
0000
0000
0000
0000
0000
0000
0000
0000
0000
079C
1EFE
3556
6AAB
5555
6AAB
5555
7FFE
0000
0000
0000
ENDCHAR
STARTCHAR 12  
ENCODING 12
SWIDTH    16000    0 
DWIDTH    16    0 
BBX  16  24  0   -5
BITMAP
0000
0000
0000
0000
0000
0000
0000
0000
3FFC
5556
FFFF
5556
2AAC
1558
0AB0
0560
02C0
0180
0000
0000
0000
0000
0000
0000
ENDCHAR
STARTCHAR 13  
ENCODING 13
SWIDTH    16000    0 
DWIDTH    16    0 
BBX  16  24  0   -5
BITMAP
0FF0
3AAC
7556
6AAA
D557
AAAB
D555
AAAB
D555
AAAB
D555
FFFF
FFFF
D555
AAAB
D555
AAAB
D555
AAAB
D555
AAAB
D555
AAAB
FFFF
ENDCHAR
STARTCHAR 14  
ENCODING 14
SWIDTH    16000    0 
DWIDTH    16    0 
BBX  16  24  0   -5
BITMAP
0FF0
300C
4002
4002
8001
8001
8001
8001
8001
8001
8001
8001
8001
8001
8001
8001
8001
8001
8001
8001
8001
8001
8001
FFFF
ENDCHAR
STARTCHAR 15  
ENCODING 15
SWIDTH    16000    0 
DWIDTH    16    0 
BBX  16  24  0   -5
BITMAP
0A50
2004
4002
0000
8001
8001
0000
8001
8001
0000
8001
8001
0000
8001
8001
0000
8001
8001
0000
8001
8001
0000
8001
DA5B
ENDCHAR
STARTCHAR 16  
ENCODING 16
SWIDTH    16000    0 
DWIDTH    16    0 
BBX  16  24  0   -5
BITMAP
0000
2004
1A58
0FF0
09D0
02E0
05E0
02C0
01E0
06E0
01C0
02E0
05E0
02C0
01E0
06E0
01C0
02E0
05E0
0AD0
0DF0
07E0
0000
0000
ENDCHAR
STARTCHAR 17  
ENCODING 17
SWIDTH    16000    0 
DWIDTH    16    0 
BBX  16  24  0   -5
BITMAP
0000
0000
1900
2600
0000
0000
0000
0064
0098
0000
0000
0000
0000
3200
4C00
0000
0000
0000
0000
00C8
0130
0000
0000
0000
ENDCHAR
STARTCHAR 18  
ENCODING 18
SWIDTH    16000    0 
DWIDTH    16    0 
BBX  16  24  0   -5
BITMAP
0000
0000
0000
0FE0
3AB8
5554
6AAC
5554
6AAC
5554
6AAC
5554
2EE8
1BB0
0380
0380
0380
0380
0380
0380
0380
0000
0000
0000
ENDCHAR
STARTCHAR 19  
ENCODING 19
SWIDTH    16000    0 
DWIDTH    16    0 
BBX  16  24  0   -5
BITMAP
0000
0000
0000
0000
00A0
00A0
0A80
0A10
2B50
2140
0548
1428
16A8
12A4
4664
5DF8
1554
3AAE
6F56
2AAA
55D6
2F6C
0000
0000
ENDCHAR
STARTCHAR 20  
ENCODING 20
SWIDTH    16000    0 
DWIDTH    16    0 
BBX  16  24  0   -5
BITMAP
0000
0000
0000
0000
0920
0540
2008
1010
4004
2008
0000
600C
0000
600C
0000
200C
4000
1010
2008
0540
0920
0000
0000
0000
ENDCHAR
STARTCHAR 21  
ENCODING 21
SWIDTH    16000    0 
DWIDTH    16    0 
BBX  16  24  0   -5
BITMAP
0000
0000
0000
0000
0000
0000
0000
0000
0000
0000
0000
0000
0000
0000
0000
0000
0000
0000
0000
0000
0000
0000
0000
0000
ENDCHAR
STARTCHAR 22  
ENCODING 22
SWIDTH    16000    0 
DWIDTH    16    0 
BBX  16  24  0   -5
BITMAP
0000
0000
0000
0000
0000
0000
0000
0000
0000
0000
0000
0000
0000
0000
0000
0000
0000
0000
0000
0000
0000
0000
0000
0000
ENDCHAR
STARTCHAR 23  
ENCODING 23
SWIDTH    16000    0 
DWIDTH    16    0 
BBX  16  24  0   -5
BITMAP
0000
0000
0000
0000
0000
0000
0000
0000
0000
0000
0000
0000
0000
0000
0000
0000
0000
0000
0000
0000
0000
0000
0000
0000
ENDCHAR
STARTCHAR 24  
ENCODING 24
SWIDTH    16000    0 
DWIDTH    16    0 
BBX  16  24  0   -5
BITMAP
0000
0000
0000
0000
0000
0000
0000
0000
0000
0000
0000
0000
0000
0000
0000
0000
0000
0000
0000
0000
0000
0000
0000
0000
ENDCHAR
STARTCHAR 25  
ENCODING 25
SWIDTH    16000    0 
DWIDTH    16    0 
BBX  16  24  0   -5
BITMAP
0000
0000
0000
0000
0000
0000
0000
0000
0000
0000
0000
0000
0000
0000
0000
0000
0000
0000
0000
0000
0000
0000
0000
0000
ENDCHAR
STARTCHAR 26  
ENCODING 26
SWIDTH    16000    0 
DWIDTH    16    0 
BBX  16  24  0   -5
BITMAP
0000
0000
0000
0000
0000
0000
0000
0000
0000
0000
0000
0000
0000
0000
0000
0000
0000
0000
0000
0000
0000
0000
0000
0000
ENDCHAR
STARTCHAR 27  
ENCODING 27
SWIDTH    16000    0 
DWIDTH    16    0 
BBX  16  24  0   -5
BITMAP
0000
0000
0000
0000
0000
0000
0000
0000
0000
0000
0000
0000
0000
0000
0000
0000
0000
0000
0000
0000
0000
0000
0000
0000
ENDCHAR
STARTCHAR 28  
ENCODING 28
SWIDTH    16000    0 
DWIDTH    16    0 
BBX  16  24  0   -5
BITMAP
0000
0000
0000
0000
0000
0000
0000
0000
0000
0000
0000
0000
0000
0000
0000
0000
0000
0000
0000
0000
0000
0000
0000
0000
ENDCHAR
STARTCHAR 29  
ENCODING 29
SWIDTH    16000    0 
DWIDTH    16    0 
BBX  16  24  0   -5
BITMAP
0000
0000
0000
0000
0000
0000
0000
0000
0000
0000
0000
0000
0000
0000
0000
0000
0000
0000
0000
0000
0000
0000
0000
0000
ENDCHAR
STARTCHAR 30  
ENCODING 30
SWIDTH    16000    0 
DWIDTH    16    0 
BBX  16  24  0   -5
BITMAP
0000
0000
0000
0000
0000
0000
0000
0000
0000
0000
0000
0000
0000
0000
0000
0000
0000
0000
0000
0000
0000
0000
0000
0000
ENDCHAR
STARTCHAR 31  
ENCODING 31
SWIDTH    16000    0 
DWIDTH    16    0 
BBX  16  24  0   -5
BITMAP
0000
0000
0000
0000
0000
0000
0000
0000
0000
0000
0000
0000
0000
0000
0000
0000
0000
0000
0000
0000
0000
0000
0000
0000
ENDCHAR
STARTCHAR 32  
ENCODING 32
SWIDTH    16000    0 
DWIDTH    16    0 
BBX  16  24  0   -5
BITMAP
0000
0000
0000
0000
0000
0000
0000
0000
0000
0000
0000
0000
0000
0000
0000
0000
0000
0000
0000
0000
0000
0000
0000
0000
ENDCHAR
STARTCHAR 33  
ENCODING 33
SWIDTH    16000    0 
DWIDTH    16    0 
BBX  16  24  0   -5
BITMAP
0000
0000
0000
0000
0180
03C0
03C0
03C0
03C0
03C0
0180
0180
0180
0180
0180
0000
0180
03C0
03C0
0180
0000
0000
0000
0000
ENDCHAR
STARTCHAR 34  
ENCODING 34
SWIDTH    16000    0 
DWIDTH    16    0 
BBX  16  24  0   -5
BITMAP
0000
0000
0000
0000
0660
0660
0660
0660
0660
0000
0000
0000
0000
0000
0000
0000
0000
0000
0000
0000
0000
0000
0000
0000
ENDCHAR
STARTCHAR 35  
ENCODING 35
SWIDTH    16000    0 
DWIDTH    16    0 
BBX  16  24  0   -5
BITMAP
0000
0000
0000
0000
0318
0318
0338
0630
3FFC
3FFC
0630
0C60
0C60
3FFC
3FFC
0C60
1CC0
18C0
18C0
0000
0000
0000
0000
0000
ENDCHAR
STARTCHAR 36  
ENCODING 36
SWIDTH    16000    0 
DWIDTH    16    0 
BBX  16  24  0   -5
BITMAP
0000
0000
0000
0100
07C0
0FE0
1D70
1930
1900
1D00
0F80
03E0
0170
0130
0130
1930
1D70
0FE0
07C0
0100
0100
0000
0000
0000
ENDCHAR
STARTCHAR 37  
ENCODING 37
SWIDTH    16000    0 
DWIDTH    16    0 
BBX  16  24  0   -5
BITMAP
0000
0000
0000
0000
1818
3C30
6630
6660
6660
66C0
3CC0
1998
033C
0366
0666
0666
0C66
0C3C
1818
0000
0000
0000
0000
0000
ENDCHAR
STARTCHAR 38  
ENCODING 38
SWIDTH    16000    0 
DWIDTH    16    0 
BBX  16  24  0   -5
BITMAP
0000
0000
0000
0000
03C0
07E0
0C30
0C30
0C60
06C0
0780
0F80
19CC
30EC
3078
3030
3878
1FEC
0F84
0000
0000
0000
0000
0000
ENDCHAR
STARTCHAR 39  
ENCODING 39
SWIDTH    16000    0 
DWIDTH    16    0 
BBX  16  24  0   -5
BITMAP
0000
0000
0000
0000
0180
03C0
03C0
0180
0300
0000
0000
0000
0000
0000
0000
0000
0000
0000
0000
0000
0000
0000
0000
0000
ENDCHAR
STARTCHAR 40  
ENCODING 40
SWIDTH    16000    0 
DWIDTH    16    0 
BBX  16  24  0   -5
BITMAP
0000
0000
0000
0000
0020
0040
00C0
0080
0180
0180
0300
0300
0300
0300
0300
0300
0300
0180
0180
0080
00C0
0040
0020
0000
ENDCHAR
STARTCHAR 41  
ENCODING 41
SWIDTH    16000    0 
DWIDTH    16    0 
BBX  16  24  0   -5
BITMAP
0000
0000
0000
0000
0400
0200
0300
0100
0180
0180
00C0
00C0
00C0
00C0
00C0
00C0
00C0
0180
0180
0100
0300
0200
0400
0000
ENDCHAR
STARTCHAR 42  
ENCODING 42
SWIDTH    16000    0 
DWIDTH    16    0 
BBX  16  24  0   -5
BITMAP
0000
0000
0000
0000
0000
0000
0000
0000
0000
0C60
0EE0
07C0
1FF0
1FF0
07C0
0EE0
0C60
0000
0000
0000
0000
0000
0000
0000
ENDCHAR
STARTCHAR 43  
ENCODING 43
SWIDTH    16000    0 
DWIDTH    16    0 
BBX  16  24  0   -5
BITMAP
0000
0000
0000
0000
0000
0000
0000
0180
0180
0180
0180
0180
3FFC
3FFC
0180
0180
0180
0180
0180
0000
0000
0000
0000
0000
ENDCHAR
STARTCHAR 44  
ENCODING 44
SWIDTH    16000    0 
DWIDTH    16    0 
BBX  16  24  0   -5
BITMAP
0000
0000
0000
0000
0000
0000
0000
0000
0000
0000
0000
0000
0000
0000
0000
0000
0180
03C0
03C0
0180
0300
0000
0000
0000
ENDCHAR
STARTCHAR 45  
ENCODING 45
SWIDTH    16000    0 
DWIDTH    16    0 
BBX  16  24  0   -5
BITMAP
0000
0000
0000
0000
0000
0000
0000
0000
0000
0000
0000
0000
3FFC
3FFC
0000
0000
0000
0000
0000
0000
0000
0000
0000
0000
ENDCHAR
STARTCHAR 46  
ENCODING 46
SWIDTH    16000    0 
DWIDTH    16    0 
BBX  16  24  0   -5
BITMAP
0000
0000
0000
0000
0000
0000
0000
0000
0000
0000
0000
0000
0000
0000
0000
0000
0180
03C0
03C0
0180
0000
0000
0000
0000
ENDCHAR
STARTCHAR 47  
ENCODING 47
SWIDTH    16000    0 
DWIDTH    16    0 
BBX  16  24  0   -5
BITMAP
0000
0000
0000
0030
0030
0060
0060
00C0
00C0
0180
0180
0300
0300
0600
0600
0C00
0C00
1800
1800
0000
0000
0000
0000
0000
ENDCHAR
STARTCHAR 48  
ENCODING 48
SWIDTH    16000    0 
DWIDTH    16    0 
BBX  16  24  0   -5
BITMAP
0000
0000
0000
0000
03C0
0FF0
0C30
1818
1818
1818
1818
1818
1818
1818
1818
1818
0C30
0FF0
03C0
0000
0000
0000
0000
0000
ENDCHAR
STARTCHAR 49  
ENCODING 49
SWIDTH    16000    0 
DWIDTH    16    0 
BBX  16  24  0   -5
BITMAP
0000
0000
0000
0000
00C0
00C0
03C0
07C0
0CC0
00C0
00C0
00C0
00C0
00C0
00C0
00C0
00C0
00C0
00C0
0000
0000
0000
0000
0000
ENDCHAR
STARTCHAR 50  
ENCODING 50
SWIDTH    16000    0 
DWIDTH    16    0 
BBX  16  24  0   -5
BITMAP
0000
0000
0000
0000
07E0
0FF0
1C38
1818
0018
0018
0030
0030
0060
01C0
0380
0600
0C00
1FF8
1FF8
0000
0000
0000
0000
0000
ENDCHAR
STARTCHAR 51  
ENCODING 51
SWIDTH    16000    0 
DWIDTH    16    0 
BBX  16  24  0   -5
BITMAP
0000
0000
0000
0000
07C0
0FE0
1C70
1830
0030
0060
01C0
01F0
0038
0018
0018
1818
1C30
0FF0
07C0
0000
0000
0000
0000
0000
ENDCHAR
STARTCHAR 52  
ENCODING 52
SWIDTH    16000    0 
DWIDTH    16    0 
BBX  16  24  0   -5
BITMAP
0000
0000
0000
0000
0020
0060
00E0
01E0
0360
0360
0660
0C60
1860
1FF8
1FF8
0060
0060
0060
0060
0000
0000
0000
0000
0000
ENDCHAR
STARTCHAR 53  
ENCODING 53
SWIDTH    16000    0 
DWIDTH    16    0 
BBX  16  24  0   -5
BITMAP
0000
0000
0000
0000
07F0
07F0
0C00
0C00
0C00
0DE0
1FF0
1838
0018
0018
0018
1818
1C30
0FF0
07C0
0000
0000
0000
0000
0000
ENDCHAR
STARTCHAR 54  
ENCODING 54
SWIDTH    16000    0 
DWIDTH    16    0 
BBX  16  24  0   -5
BITMAP
0000
0000
0000
0000
03E0
07F0
0C38
0C18
1800
19E0
1FF0
1C38
1818
1818
1818
1818
0C30
07F0
03C0
0000
0000
0000
0000
0000
ENDCHAR
STARTCHAR 55  
ENCODING 55
SWIDTH    16000    0 
DWIDTH    16    0 
BBX  16  24  0   -5
BITMAP
0000
0000
0000
0000
1FF8
1FF8
0030
0060
0060
00C0
00C0
0180
0180
0300
0300
0300
0600
0600
0600
0000
0000
0000
0000
0000
ENDCHAR
STARTCHAR 56  
ENCODING 56
SWIDTH    16000    0 
DWIDTH    16    0 
BBX  16  24  0   -5
BITMAP
0000
0000
0000
0000
03C0
07E0
0C30
0C30
0C30
0C30
07E0
07E0
0C30
1818
1818
1818
1C38
0FF0
07E0
0000
0000
0000
0000
0000
ENDCHAR
STARTCHAR 57  
ENCODING 57
SWIDTH    16000    0 
DWIDTH    16    0 
BBX  16  24  0   -5
BITMAP
0000
0000
0000
0000
03C0
0FE0
0C30
1818
1818
1818
1818
0C38
0FF8
0798
0018
1830
1C30
0FE0
07C0
0000
0000
0000
0000
0000
ENDCHAR
STARTCHAR 58  
ENCODING 58
SWIDTH    16000    0 
DWIDTH    16    0 
BBX  16  24  0   -5
BITMAP
0000
0000
0000
0000
0000
0000
0000
0000
0000
0000
0180
03C0
03C0
0180
0000
0000
0180
03C0
03C0
0180
0000
0000
0000
0000
ENDCHAR
STARTCHAR 59  
ENCODING 59
SWIDTH    16000    0 
DWIDTH    16    0 
BBX  16  24  0   -5
BITMAP
0000
0000
0000
0000
0000
0000
0000
0000
0000
0000
0180
03C0
03C0
0180
0000
0000
0180
03C0
03C0
0180
0300
0000
0000
0000
ENDCHAR
STARTCHAR 60  
ENCODING 60
SWIDTH    16000    0 
DWIDTH    16    0 
BBX  16  24  0   -5
BITMAP
0000
0000
0000
0000
0000
0000
0000
0000
0030
00E0
0380
0E00
1800
1800
0E00
0380
00E0
0030
0000
0000
0000
0000
0000
0000
ENDCHAR
STARTCHAR 61  
ENCODING 61
SWIDTH    16000    0 
DWIDTH    16    0 
BBX  16  24  0   -5
BITMAP
0000
0000
0000
0000
0000
0000
0000
0000
0000
0000
3FFC
3FFC
0000
0000
3FFC
3FFC
0000
0000
0000
0000
0000
0000
0000
0000
ENDCHAR
STARTCHAR 62  
ENCODING 62
SWIDTH    16000    0 
DWIDTH    16    0 
BBX  16  24  0   -5
BITMAP
0000
0000
0000
0000
0000
0000
0000
0000
1800
0E00
0380
00E0
0030
0030
00E0
0380
0E00
1800
0000
0000
0000
0000
0000
0000
ENDCHAR
STARTCHAR 63  
ENCODING 63
SWIDTH    16000    0 
DWIDTH    16    0 
BBX  16  24  0   -5
BITMAP
0000
0000
0000
0000
07E0
0FF0
1C38
1818
0018
0038
0070
00E0
01C0
0180
0180
0000
0180
03C0
03C0
0180
0000
0000
0000
0000
ENDCHAR
STARTCHAR 64  
ENCODING 64
SWIDTH    16000    0 
DWIDTH    16    0 
BBX  16  24  0   -5
BITMAP
0000
0000
0000
0000
03E0
0C18
1004
23DA
47FA
4E72
8C32
9832
9822
9866
9CEC
4FF8
4770
2002
180C
07F0
0000
0000
0000
0000
ENDCHAR
STARTCHAR 65  
ENCODING 65
SWIDTH    16000    0 
DWIDTH    16    0 
BBX  16  24  0   -5
BITMAP
0000
0000
0000
0000
0380
0380
06C0
06C0
06C0
0C60
0C60
0C60
1FF0
1FF0
3018
3018
3018
600C
600C
0000
0000
0000
0000
0000
ENDCHAR
STARTCHAR 66  
ENCODING 66
SWIDTH    16000    0 
DWIDTH    16    0 
BBX  16  24  0   -5
BITMAP
0000
0000
0000
0000
3FC0
3FE0
3070
3030
3030
3070
3FE0
3FE0
3030
3018
3018
3018
3038
3FF0
3FE0
0000
0000
0000
0000
0000
ENDCHAR
STARTCHAR 67  
ENCODING 67
SWIDTH    16000    0 
DWIDTH    16    0 
BBX  16  24  0   -5
BITMAP
0000
0000
0000
0000
07E0
1FF0
1C38
301C
700C
6000
6000
6000
6000
6000
700C
3018
3C38
1FF0
07E0
0000
0000
0000
0000
0000
ENDCHAR
STARTCHAR 68  
ENCODING 68
SWIDTH    16000    0 
DWIDTH    16    0 
BBX  16  24  0   -5
BITMAP
0000
0000
0000
0000
3FC0
3FF0
3038
3018
300C
300C
300C
300C
300C
300C
300C
3018
3038
3FF0
3FC0
0000
0000
0000
0000
0000
ENDCHAR
STARTCHAR 69  
ENCODING 69
SWIDTH    16000    0 
DWIDTH    16    0 
BBX  16  24  0   -5
BITMAP
0000
0000
0000
0000
1FFC
1FFC
1800
1800
1800
1800
1FF8
1FF8
1800
1800
1800
1800
1800
1FFC
1FFC
0000
0000
0000
0000
0000
ENDCHAR
STARTCHAR 70  
ENCODING 70
SWIDTH    16000    0 
DWIDTH    16    0 
BBX  16  24  0   -5
BITMAP
0000
0000
0000
0000
1FF8
1FF8
1800
1800
1800
1800
1FF0
1FF0
1800
1800
1800
1800
1800
1800
1800
0000
0000
0000
0000
0000
ENDCHAR
STARTCHAR 71  
ENCODING 71
SWIDTH    16000    0 
DWIDTH    16    0 
BBX  16  24  0   -5
BITMAP
0000
0000
0000
0000
07E0
0FF0
1C38
301C
3008
6000
6000
60FC
60FC
600C
300C
300C
1C3C
0FF8
03E0
0000
0000
0000
0000
0000
ENDCHAR
STARTCHAR 72  
ENCODING 72
SWIDTH    16000    0 
DWIDTH    16    0 
BBX  16  24  0   -5
BITMAP
0000
0000
0000
0000
300C
300C
300C
300C
300C
300C
3FFC
3FFC
300C
300C
300C
300C
300C
300C
300C
0000
0000
0000
0000
0000
ENDCHAR
STARTCHAR 73  
ENCODING 73
SWIDTH    16000    0 
DWIDTH    16    0 
BBX  16  24  0   -5
BITMAP
0000
0000
0000
0000
07E0
07E0
0180
0180
0180
0180
0180
0180
0180
0180
0180
0180
0180
07E0
07E0
0000
0000
0000
0000
0000
ENDCHAR
STARTCHAR 74  
ENCODING 74
SWIDTH    16000    0 
DWIDTH    16    0 
BBX  16  24  0   -5
BITMAP
0000
0000
0000
0000
0018
0018
0018
0018
0018
0018
0018
0018
0018
0018
0018
1818
1C38
0FF0
07E0
0000
0000
0000
0000
0000
ENDCHAR
STARTCHAR 75  
ENCODING 75
SWIDTH    16000    0 
DWIDTH    16    0 
BBX  16  24  0   -5
BITMAP
0000
0000
0000
0000
3038
3070
30E0
31C0
3380
3700
3700
3F00
3B80
31C0
30E0
3060
3070
3038
301C
0000
0000
0000
0000
0000
ENDCHAR
STARTCHAR 76  
ENCODING 76
SWIDTH    16000    0 
DWIDTH    16    0 
BBX  16  24  0   -5
BITMAP
0000
0000
0000
0000
1800
1800
1800
1800
1800
1800
1800
1800
1800
1800
1800
1800
1800
1FF8
1FF8
0000
0000
0000
0000
0000
ENDCHAR
STARTCHAR 77  
ENCODING 77
SWIDTH    16000    0 
DWIDTH    16    0 
BBX  16  24  0   -5
BITMAP
0000
0000
0000
0000
700E
781E
781E
6816
6C36
6C36
6426
6666
6666
6246
63C6
63C6
6186
6186
6186
0000
0000
0000
0000
0000
ENDCHAR
STARTCHAR 78  
ENCODING 78
SWIDTH    16000    0 
DWIDTH    16    0 
BBX  16  24  0   -5
BITMAP
0000
0000
0000
0000
300C
380C
3C0C
3C0C
360C
330C
330C
318C
30CC
30CC
306C
303C
303C
301C
300C
0000
0000
0000
0000
0000
ENDCHAR
STARTCHAR 79  
ENCODING 79
SWIDTH    16000    0 
DWIDTH    16    0 
BBX  16  24  0   -5
BITMAP
0000
0000
0000
0000
07E0
0FF0
1C38
300C
700E
6006
6006
6006
6006
6006
700E
300C
1C38
0FF0
07E0
0000
0000
0000
0000
0000
ENDCHAR
STARTCHAR 80  
ENCODING 80
SWIDTH    16000    0 
DWIDTH    16    0 
BBX  16  24  0   -5
BITMAP
0000
0000
0000
0000
3FE0
3FF0
3038
3018
3018
3018
3038
3FF0
3FE0
3000
3000
3000
3000
3000
3000
0000
0000
0000
0000
0000
ENDCHAR
STARTCHAR 81  
ENCODING 81
SWIDTH    16000    0 
DWIDTH    16    0 
BBX  16  24  0   -5
BITMAP
0000
0000
0000
0000
07E0
0FF0
1C38
300C
700E
6006
6006
6006
6006
6006
700C
30EC
1C38
0FFC
07EE
0002
0000
0000
0000
0000
ENDCHAR
STARTCHAR 82  
ENCODING 82
SWIDTH    16000    0 
DWIDTH    16    0 
BBX  16  24  0   -5
BITMAP
0000
0000
0000
0000
3FE0
3FF0
3038
3018
3018
3038
3FF0
3FE0
30C0
30E0
3060
3070
3038
3018
301C
0000
0000
0000
0000
0000
ENDCHAR
STARTCHAR 83  
ENCODING 83
SWIDTH    16000    0 
DWIDTH    16    0 
BBX  16  24  0   -5
BITMAP
0000
0000
0000
0000
03E0
0FF8
1C1C
180C
1800
1C00
0FC0
03F0
0038
000C
300C
380C
1C1C
0FF8
07E0
0000
0000
0000
0000
0000
ENDCHAR
STARTCHAR 84  
ENCODING 84
SWIDTH    16000    0 
DWIDTH    16    0 
BBX  16  24  0   -5
BITMAP
0000
0000
0000
0000
3FFC
3FFC
0180
0180
0180
0180
0180
0180
0180
0180
0180
0180
0180
0180
0180
0000
0000
0000
0000
0000
ENDCHAR
STARTCHAR 85  
ENCODING 85
SWIDTH    16000    0 
DWIDTH    16    0 
BBX  16  24  0   -5
BITMAP
0000
0000
0000
0000
300C
300C
300C
300C
300C
300C
300C
300C
300C
300C
300C
381C
1C38
0FF0
07E0
0000
0000
0000
0000
0000
ENDCHAR
STARTCHAR 86  
ENCODING 86
SWIDTH    16000    0 
DWIDTH    16    0 
BBX  16  24  0   -5
BITMAP
0000
0000
0000
0000
600C
701C
3018
3018
3838
1830
1830
1C70
0C60
0C60
0EE0
06C0
06C0
07C0
0380
0000
0000
0000
0000
0000
ENDCHAR
STARTCHAR 87  
ENCODING 87
SWIDTH    16000    0 
DWIDTH    16    0 
BBX  16  24  0   -5
BITMAP
0000
0000
0000
0000
6186
6186
6186
63C6
63C6
6246
6666
6666
6426
6C36
6C36
6816
381C
381C
300C
0000
0000
0000
0000
0000
ENDCHAR
STARTCHAR 88  
ENCODING 88
SWIDTH    16000    0 
DWIDTH    16    0 
BBX  16  24  0   -5
BITMAP
0000
0000
0000
0000
381C
1C38
0C30
0660
0660
03C0
0180
03C0
03C0
06E0
0E70
0C30
1818
381C
700E
0000
0000
0000
0000
0000
ENDCHAR
STARTCHAR 89  
ENCODING 89
SWIDTH    16000    0 
DWIDTH    16    0 
BBX  16  24  0   -5
BITMAP
0000
0000
0000
0000
700E
300C
1818
1C38
0E70
0660
03C0
03C0
0180
0180
0180
0180
0180
0180
0180
0000
0000
0000
0000
0000
ENDCHAR
STARTCHAR 90  
ENCODING 90
SWIDTH    16000    0 
DWIDTH    16    0 
BBX  16  24  0   -5
BITMAP
0000
0000
0000
0000
3FFC
3FFC
0018
0030
0060
0060
00C0
0180
0300
0600
0600
0C00
1800
3FFC
3FFC
0000
0000
0000
0000
0000
ENDCHAR
STARTCHAR 91  
ENCODING 91
SWIDTH    16000    0 
DWIDTH    16    0 
BBX  16  24  0   -5
BITMAP
0000
0000
0000
0000
07E0
07E0
0600
0600
0600
0600
0600
0600
0600
0600
0600
0600
0600
0600
0600
0600
07E0
07E0
0000
0000
ENDCHAR
STARTCHAR 92  
ENCODING 92
SWIDTH    16000    0 
DWIDTH    16    0 
BBX  16  24  0   -5
BITMAP
0000
0000
0000
1800
1800
0C00
0C00
0600
0600
0300
0300
0180
0180
00C0
00C0
0060
0060
0030
0030
0000
0000
0000
0000
0000
ENDCHAR
STARTCHAR 93  
ENCODING 93
SWIDTH    16000    0 
DWIDTH    16    0 
BBX  16  24  0   -5
BITMAP
0000
0000
0000
0000
07E0
07E0
0060
0060
0060
0060
0060
0060
0060
0060
0060
0060
0060
0060
0060
0060
07E0
07E0
0000
0000
ENDCHAR
STARTCHAR 94  
ENCODING 94
SWIDTH    16000    0 
DWIDTH    16    0 
BBX  16  24  0   -5
BITMAP
0000
0000
0000
0000
0000
0000
0000
0000
0180
03C0
0660
0C30
1818
0000
0000
0000
0000
0000
0000
0000
0000
0000
0000
0000
ENDCHAR
STARTCHAR 95  
ENCODING 95
SWIDTH    16000    0 
DWIDTH    16    0 
BBX  16  24  0   -5
BITMAP
0000
0000
0000
0000
0000
0000
0000
0000
0000
0000
0000
0000
0000
0000
0000
0000
0000
0000
0000
0000
0000
FFFF
FFFF
0000
ENDCHAR
STARTCHAR 96  
ENCODING 96
SWIDTH    16000    0 
DWIDTH    16    0 
BBX  16  24  0   -5
BITMAP
0000
0000
0000
0000
0180
03C0
03C0
0180
00C0
0000
0000
0000
0000
0000
0000
0000
0000
0000
0000
0000
0000
0000
0000
0000
ENDCHAR
STARTCHAR 97  
ENCODING 97
SWIDTH    16000    0 
DWIDTH    16    0 
BBX  16  24  0   -5
BITMAP
0000
0000
0000
0000
0000
0000
0000
0000
0000
07E0
1FF0
1830
0070
07F0
1FB0
1830
1870
1FF0
0F98
0000
0000
0000
0000
0000
ENDCHAR
STARTCHAR 98  
ENCODING 98
SWIDTH    16000    0 
DWIDTH    16    0 
BBX  16  24  0   -5
BITMAP
0000
0000
0000
0000
1800
1800
1800
1800
1800
1BE0
1FF0
1C38
1818
1818
1818
1818
1C38
1FF0
1BE0
0000
0000
0000
0000
0000
ENDCHAR
STARTCHAR 99  
ENCODING 99
SWIDTH    16000    0 
DWIDTH    16    0 
BBX  16  24  0   -5
BITMAP
0000
0000
0000
0000
0000
0000
0000
0000
0000
07E0
0FF0
1C18
1800
1800
1800
1800
1C18
0FF0
07E0
0000
0000
0000
0000
0000
ENDCHAR
STARTCHAR 100  
ENCODING 100
SWIDTH    16000    0 
DWIDTH    16    0 
BBX  16  24  0   -5
BITMAP
0000
0000
0000
0000
0018
0018
0018
0018
0018
07D8
0FF8
1C38
1818
1818
1818
1818
1C38
0FF8
07D8
0000
0000
0000
0000
0000
ENDCHAR
STARTCHAR 101  
ENCODING 101
SWIDTH    16000    0 
DWIDTH    16    0 
BBX  16  24  0   -5
BITMAP
0000
0000
0000
0000
0000
0000
0000
0000
0000
07E0
0FF0
1C38
1818
1FF8
1FF8
1800
1C00
0FF0
07E0
0000
0000
0000
0000
0000
ENDCHAR
STARTCHAR 102  
ENCODING 102
SWIDTH    16000    0 
DWIDTH    16    0 
BBX  16  24  0   -5
BITMAP
0000
0000
0000
0000
03C0
07E0
0600
0600
0600
0600
1FC0
1FC0
0600
0600
0600
0600
0600
0600
0600
0000
0000
0000
0000
0000
ENDCHAR
STARTCHAR 103  
ENCODING 103
SWIDTH    16000    0 
DWIDTH    16    0 
BBX  16  24  0   -5
BITMAP
0000
0000
0000
0000
0000
0000
0000
0000
0000
07D8
0FF8
1C38
1818
1818
1818
1818
1C38
0FF8
07D8
0018
1838
1FF0
0FE0
0000
ENDCHAR
STARTCHAR 104  
ENCODING 104
SWIDTH    16000    0 
DWIDTH    16    0 
BBX  16  24  0   -5
BITMAP
0000
0000
0000
0000
1800
1800
1800
1800
1800
1BE0
1FF0
1C38
1818
1818
1818
1818
1818
1818
1818
0000
0000
0000
0000
0000
ENDCHAR
STARTCHAR 105  
ENCODING 105
SWIDTH    16000    0 
DWIDTH    16    0 
BBX  16  24  0   -5
BITMAP
0000
0000
0000
0000
0000
0180
0180
0000
0000
0380
0380
0180
0180
0180
0180
0180
0180
03C0
03C0
0000
0000
0000
0000
0000
ENDCHAR
STARTCHAR 106  
ENCODING 106
SWIDTH    16000    0 
DWIDTH    16    0 
BBX  16  24  0   -5
BITMAP
0000
0000
0000
0000
0030
0030
0000
0000
0070
0070
0030
0030
0030
0030
0030
0030
0030
1030
1870
1FF0
0FE0
0000
0000
0000
ENDCHAR
STARTCHAR 107  
ENCODING 107
SWIDTH    16000    0 
DWIDTH    16    0 
BBX  16  24  0   -5
BITMAP
0000
0000
0000
0000
1800
1800
1800
1800
1870
18E0
19C0
1B80
1F00
1F80
1980
18C0
18E0
1860
1870
0000
0000
0000
0000
0000
ENDCHAR
STARTCHAR 108  
ENCODING 108
SWIDTH    16000    0 
DWIDTH    16    0 
BBX  16  24  0   -5
BITMAP
0000
0000
0000
0000
0380
0380
0180
0180
0180
0180
0180
0180
0180
0180
0180
0180
0180
03C0
03C0
0000
0000
0000
0000
0000
ENDCHAR
STARTCHAR 109  
ENCODING 109
SWIDTH    16000    0 
DWIDTH    16    0 
BBX  16  24  0   -5
BITMAP
0000
0000
0000
0000
0000
0000
0000
0000
0000
3670
3FF8
3BDC
318C
318C
318C
318C
318C
318C
318C
0000
0000
0000
0000
0000
ENDCHAR
STARTCHAR 110  
ENCODING 110
SWIDTH    16000    0 
DWIDTH    16    0 
BBX  16  24  0   -5
BITMAP
0000
0000
0000
0000
0000
0000
0000
0000
0000
1BE0
1FF0
1C38
1818
1818
1818
1818
1818
1818
1818
0000
0000
0000
0000
0000
ENDCHAR
STARTCHAR 111  
ENCODING 111
SWIDTH    16000    0 
DWIDTH    16    0 
BBX  16  24  0   -5
BITMAP
0000
0000
0000
0000
0000
0000
0000
0000
0000
07E0
0FF0
1C38
1818
1818
1818
1818
1C38
0FF0
07E0
0000
0000
0000
0000
0000
ENDCHAR
STARTCHAR 112  
ENCODING 112
SWIDTH    16000    0 
DWIDTH    16    0 
BBX  16  24  0   -5
BITMAP
0000
0000
0000
0000
0000
0000
0000
0000
0000
1BE0
1FF0
1C38
1818
1818
1818
1818
1C38
1FF0
1BE0
1800
1800
1800
1800
0000
ENDCHAR
STARTCHAR 113  
ENCODING 113
SWIDTH    16000    0 
DWIDTH    16    0 
BBX  16  24  0   -5
BITMAP
0000
0000
0000
0000
0000
0000
0000
0000
0000
07D8
0FF8
1C38
1818
1818
1818
1818
1C38
0FF8
07D8
0018
0018
0018
0018
0000
ENDCHAR
STARTCHAR 114  
ENCODING 114
SWIDTH    16000    0 
DWIDTH    16    0 
BBX  16  24  0   -5
BITMAP
0000
0000
0000
0000
0000
0000
0000
0000
0000
1BF0
1FF8
1C18
1800
1800
1800
1800
1800
1800
1800
0000
0000
0000
0000
0000
ENDCHAR
STARTCHAR 115  
ENCODING 115
SWIDTH    16000    0 
DWIDTH    16    0 
BBX  16  24  0   -5
BITMAP
0000
0000
0000
0000
0000
0000
0000
0000
0000
07E0
0FF0
1818
1800
0FC0
03F0
0018
1818
0FF0
07E0
0000
0000
0000
0000
0000
ENDCHAR
STARTCHAR 116  
ENCODING 116
SWIDTH    16000    0 
DWIDTH    16    0 
BBX  16  24  0   -5
BITMAP
0000
0000
0000
0000
0300
0300
0300
0300
0FE0
0FE0
0300
0300
0300
0300
0300
0300
0300
03C0
01C0
0000
0000
0000
0000
0000
ENDCHAR
STARTCHAR 117  
ENCODING 117
SWIDTH    16000    0 
DWIDTH    16    0 
BBX  16  24  0   -5
BITMAP
0000
0000
0000
0000
0000
0000
0000
0000
0000
1818
1818
1818
1818
1818
1818
1818
1C38
0FF8
07D8
0000
0000
0000
0000
0000
ENDCHAR
STARTCHAR 118  
ENCODING 118
SWIDTH    16000    0 
DWIDTH    16    0 
BBX  16  24  0   -5
BITMAP
0000
0000
0000
0000
0000
0000
0000
0000
0000
300C
300C
1818
1818
0C30
0E70
0660
03C0
03C0
0180
0000
0000
0000
0000
0000
ENDCHAR
STARTCHAR 119  
ENCODING 119
SWIDTH    16000    0 
DWIDTH    16    0 
BBX  16  24  0   -5
BITMAP
0000
0000
0000
0000
0000
0000
0000
0000
0000
318C
318C
318C
318C
1998
1BD8
0A50
0E70
0E70
0C30
0000
0000
0000
0000
0000
ENDCHAR
STARTCHAR 120  
ENCODING 120
SWIDTH    16000    0 
DWIDTH    16    0 
BBX  16  24  0   -5
BITMAP
0000
0000
0000
0000
0000
0000
0000
0000
0000
1C38
0C30
0660
0660
03C0
03C0
0660
0660
0C30
1C38
0000
0000
0000
0000
0000
ENDCHAR
STARTCHAR 121  
ENCODING 121
SWIDTH    16000    0 
DWIDTH    16    0 
BBX  16  24  0   -5
BITMAP
0000
0000
0000
0000
0000
0000
0000
0000
0000
1818
1818
1818
1818
1818
1818
1818
1C38
0FF8
07D8
0018
1838
1FF0
0FE0
0000
ENDCHAR
STARTCHAR 122  
ENCODING 122
SWIDTH    16000    0 
DWIDTH    16    0 
BBX  16  24  0   -5
BITMAP
0000
0000
0000
0000
0000
0000
0000
0000
0000
1FF8
1FF8
0070
00E0
01C0
0380
0700
0E00
1FF8
1FF8
0000
0000
0000
0000
0000
ENDCHAR
STARTCHAR 123  
ENCODING 123
SWIDTH    16000    0 
DWIDTH    16    0 
BBX  16  24  0   -5
BITMAP
0000
0000
0000
00E0
0180
0180
0180
0180
0180
0180
0180
0300
0E00
0300
0180
0180
0180
0180
0180
0180
0180
00E0
0000
0000
ENDCHAR
STARTCHAR 124  
ENCODING 124
SWIDTH    16000    0 
DWIDTH    16    0 
BBX  16  24  0   -5
BITMAP
0000
0000
0000
0180
0180
0180
0180
0180
0180
0180
0180
0180
0180
0180
0180
0180
0180
0180
0180
0180
0180
0180
0000
0000
ENDCHAR
STARTCHAR 125  
ENCODING 125
SWIDTH    16000    0 
DWIDTH    16    0 
BBX  16  24  0   -5
BITMAP
0000
0000
0000
0700
0180
0180
0180
0180
0180
0180
0180
00C0
0070
00C0
0180
0180
0180
0180
0180
0180
0180
0700
0000
0000
ENDCHAR
STARTCHAR 126  
ENCODING 126
SWIDTH    16000    0 
DWIDTH    16    0 
BBX  16  24  0   -5
BITMAP
0000
0000
0000
0000
0000
0000
0000
0000
0000
0E0C
1F9C
39F8
3070
0000
0000
0000
0000
0000
0000
0000
0000
0000
0000
0000
ENDCHAR
STARTCHAR 127  
ENCODING 127
SWIDTH    16000    0 
DWIDTH    16    0 
BBX  16  24  0   -5
BITMAP
5555
AAAA
5555
AAAA
5555
AAAA
5555
AAAA
5555
AAAA
5555
AAAA
5555
AAAA
5555
AAAA
5555
AAAA
5555
AAAA
5555
AAAA
5555
AAAA
ENDCHAR
STARTCHAR 128  
ENCODING 128
SWIDTH    16000    0 
DWIDTH    16    0 
BBX  16  24  0   -5
BITMAP
0000
0000
0000
0000
0000
0000
0000
0000
0000
0000
0000
0000
0000
0000
0000
0000
0000
0000
0000
0000
0000
0000
0000
0000
ENDCHAR
STARTCHAR 129  
ENCODING 129
SWIDTH    16000    0 
DWIDTH    16    0 
BBX  16  24  0   -5
BITMAP
0000
0000
0000
0000
0000
0000
0000
0000
0000
0000
0000
0000
0000
0000
0000
0000
0000
0000
0000
0000
0000
0000
0000
0000
ENDCHAR
STARTCHAR 130  
ENCODING 130
SWIDTH    16000    0 
DWIDTH    16    0 
BBX  16  24  0   -5
BITMAP
0000
0000
0000
0000
0000
0000
0000
0000
0000
0000
0000
0000
0000
0000
0000
0000
0000
0000
0000
0000
0000
0000
0000
0000
ENDCHAR
STARTCHAR 131  
ENCODING 131
SWIDTH    16000    0 
DWIDTH    16    0 
BBX  16  24  0   -5
BITMAP
0000
0000
0000
0000
0000
0000
0000
0000
0000
0000
0000
0000
0000
0000
0000
0000
0000
0000
0000
0000
0000
0000
0000
0000
ENDCHAR
STARTCHAR 132  
ENCODING 132
SWIDTH    16000    0 
DWIDTH    16    0 
BBX  16  24  0   -5
BITMAP
0000
0000
0000
0000
0000
0000
0000
0000
0000
0000
0000
0000
0000
0000
0000
0000
0000
0000
0000
0000
0000
0000
0000
0000
ENDCHAR
STARTCHAR 133  
ENCODING 133
SWIDTH    16000    0 
DWIDTH    16    0 
BBX  16  24  0   -5
BITMAP
0000
0000
0000
0000
0000
0000
0000
0000
0000
0000
0000
0000
0000
0000
0000
0000
0000
0000
0000
0000
0000
0000
0000
0000
ENDCHAR
STARTCHAR 134  
ENCODING 134
SWIDTH    16000    0 
DWIDTH    16    0 
BBX  16  24  0   -5
BITMAP
0000
0000
0000
0000
0000
0000
0000
0000
0000
0000
0000
0000
0000
0000
0000
0000
0000
0000
0000
0000
0000
0000
0000
0000
ENDCHAR
STARTCHAR 135  
ENCODING 135
SWIDTH    16000    0 
DWIDTH    16    0 
BBX  16  24  0   -5
BITMAP
0000
0000
0000
0000
0000
0000
0000
0000
0000
0000
0000
0000
0000
0000
0000
0000
0000
0000
0000
0000
0000
0000
0000
0000
ENDCHAR
STARTCHAR 136  
ENCODING 136
SWIDTH    16000    0 
DWIDTH    16    0 
BBX  16  24  0   -5
BITMAP
0000
0000
0000
0000
0000
0000
0000
0000
0000
0000
0000
0000
0000
0000
0000
0000
0000
0000
0000
0000
0000
0000
0000
0000
ENDCHAR
STARTCHAR 137  
ENCODING 137
SWIDTH    16000    0 
DWIDTH    16    0 
BBX  16  24  0   -5
BITMAP
0000
0000
0000
0000
0000
0000
0000
0000
0000
0000
0000
0000
0000
0000
0000
0000
0000
0000
0000
0000
0000
0000
0000
0000
ENDCHAR
STARTCHAR 138  
ENCODING 138
SWIDTH    16000    0 
DWIDTH    16    0 
BBX  16  24  0   -5
BITMAP
0000
0000
0000
0000
0000
0000
0000
0000
0000
0000
0000
0000
0000
0000
0000
0000
0000
0000
0000
0000
0000
0000
0000
0000
ENDCHAR
STARTCHAR 139  
ENCODING 139
SWIDTH    16000    0 
DWIDTH    16    0 
BBX  16  24  0   -5
BITMAP
0000
0000
0000
0000
0000
0000
0000
0000
0000
0000
0000
0000
0000
0000
0000
0000
0000
0000
0000
0000
0000
0000
0000
0000
ENDCHAR
STARTCHAR 140  
ENCODING 140
SWIDTH    16000    0 
DWIDTH    16    0 
BBX  16  24  0   -5
BITMAP
0000
0000
0000
0000
0000
0000
0000
0000
0000
0000
0000
0000
0000
0000
0000
0000
0000
0000
0000
0000
0000
0000
0000
0000
ENDCHAR
STARTCHAR 141  
ENCODING 141
SWIDTH    16000    0 
DWIDTH    16    0 
BBX  16  24  0   -5
BITMAP
0000
0000
0000
0000
0000
0000
0000
0000
0000
0000
0000
0000
0000
0000
0000
0000
0000
0000
0000
0000
0000
0000
0000
0000
ENDCHAR
STARTCHAR 142  
ENCODING 142
SWIDTH    16000    0 
DWIDTH    16    0 
BBX  16  24  0   -5
BITMAP
0000
0000
0000
0000
0000
0000
0000
0000
0000
0000
0000
0000
0000
0000
0000
0000
0000
0000
0000
0000
0000
0000
0000
0000
ENDCHAR
STARTCHAR 143  
ENCODING 143
SWIDTH    16000    0 
DWIDTH    16    0 
BBX  16  24  0   -5
BITMAP
0000
0000
0000
0000
0000
0000
0000
0000
0000
0000
0000
0000
0000
0000
0000
0000
0000
0000
0000
0000
0000
0000
0000
0000
ENDCHAR
STARTCHAR 144  
ENCODING 144
SWIDTH    16000    0 
DWIDTH    16    0 
BBX  16  24  0   -5
BITMAP
0000
0000
0000
0000
0000
0000
0000
0000
0000
0000
0000
0000
0000
0000
0000
0000
0000
0000
0000
0000
0000
0000
0000
0000
ENDCHAR
STARTCHAR 145  
ENCODING 145
SWIDTH    16000    0 
DWIDTH    16    0 
BBX  16  24  0   -5
BITMAP
0000
0000
0000
0000
0000
0000
0000
0000
0000
0000
0000
0000
0000
0000
0000
0000
0000
0000
0000
0000
0000
0000
0000
0000
ENDCHAR
STARTCHAR 146  
ENCODING 146
SWIDTH    16000    0 
DWIDTH    16    0 
BBX  16  24  0   -5
BITMAP
0000
0000
0000
0000
0000
0000
0000
0000
0000
0000
0000
0000
0000
0000
0000
0000
0000
0000
0000
0000
0000
0000
0000
0000
ENDCHAR
STARTCHAR 147  
ENCODING 147
SWIDTH    16000    0 
DWIDTH    16    0 
BBX  16  24  0   -5
BITMAP
0000
0000
0000
0000
0000
0000
0000
0000
0000
0000
0000
0000
0000
0000
0000
0000
0000
0000
0000
0000
0000
0000
0000
0000
ENDCHAR
STARTCHAR 148  
ENCODING 148
SWIDTH    16000    0 
DWIDTH    16    0 
BBX  16  24  0   -5
BITMAP
0000
0000
0000
0000
0000
0000
0000
0000
0000
0000
0000
0000
0000
0000
0000
0000
0000
0000
0000
0000
0000
0000
0000
0000
ENDCHAR
STARTCHAR 149  
ENCODING 149
SWIDTH    16000    0 
DWIDTH    16    0 
BBX  16  24  0   -5
BITMAP
0000
0000
0000
0000
0000
0000
0000
0000
0000
0000
0000
0000
0000
0000
0000
0000
0000
0000
0000
0000
0000
0000
0000
0000
ENDCHAR
STARTCHAR 150  
ENCODING 150
SWIDTH    16000    0 
DWIDTH    16    0 
BBX  16  24  0   -5
BITMAP
0000
0000
0000
0000
0000
0000
0000
0000
0000
0000
0000
0000
0000
0000
0000
0000
0000
0000
0000
0000
0000
0000
0000
0000
ENDCHAR
STARTCHAR 151  
ENCODING 151
SWIDTH    16000    0 
DWIDTH    16    0 
BBX  16  24  0   -5
BITMAP
0000
0000
0000
0000
0000
0000
0000
0000
0000
0000
0000
0000
0000
0000
0000
0000
0000
0000
0000
0000
0000
0000
0000
0000
ENDCHAR
STARTCHAR 152  
ENCODING 152
SWIDTH    16000    0 
DWIDTH    16    0 
BBX  16  24  0   -5
BITMAP
0000
0000
0000
0000
0000
0000
0000
0000
0000
0000
0000
0000
0000
0000
0000
0000
0000
0000
0000
0000
0000
0000
0000
0000
ENDCHAR
STARTCHAR 153  
ENCODING 153
SWIDTH    16000    0 
DWIDTH    16    0 
BBX  16  24  0   -5
BITMAP
0000
0000
0000
0000
0000
0000
0000
0000
0000
0000
0000
0000
0000
0000
0000
0000
0000
0000
0000
0000
0000
0000
0000
0000
ENDCHAR
STARTCHAR 154  
ENCODING 154
SWIDTH    16000    0 
DWIDTH    16    0 
BBX  16  24  0   -5
BITMAP
0000
0000
0000
0000
0000
0000
0000
0000
0000
0000
0000
0000
0000
0000
0000
0000
0000
0000
0000
0000
0000
0000
0000
0000
ENDCHAR
STARTCHAR 155  
ENCODING 155
SWIDTH    16000    0 
DWIDTH    16    0 
BBX  16  24  0   -5
BITMAP
0000
0000
0000
0000
0000
0000
0000
0000
0000
0000
0000
0000
0000
0000
0000
0000
0000
0000
0000
0000
0000
0000
0000
0000
ENDCHAR
STARTCHAR 156  
ENCODING 156
SWIDTH    16000    0 
DWIDTH    16    0 
BBX  16  24  0   -5
BITMAP
0000
0000
0000
0000
0000
0000
0000
0000
0000
0000
0000
0000
0000
0000
0000
0000
0000
0000
0000
0000
0000
0000
0000
0000
ENDCHAR
STARTCHAR 157  
ENCODING 157
SWIDTH    16000    0 
DWIDTH    16    0 
BBX  16  24  0   -5
BITMAP
0000
0000
0000
0000
0000
0000
0000
0000
0000
0000
0000
0000
0000
0000
0000
0000
0000
0000
0000
0000
0000
0000
0000
0000
ENDCHAR
STARTCHAR 158  
ENCODING 158
SWIDTH    16000    0 
DWIDTH    16    0 
BBX  16  24  0   -5
BITMAP
0000
0000
0000
0000
0000
0000
0000
0000
0000
0000
0000
0000
0000
0000
0000
0000
0000
0000
0000
0000
0000
0000
0000
0000
ENDCHAR
STARTCHAR 159  
ENCODING 159
SWIDTH    16000    0 
DWIDTH    16    0 
BBX  16  24  0   -5
BITMAP
0000
0000
0000
0000
0000
0000
0000
0000
0000
0000
0000
0000
0000
0000
0000
0000
0000
0000
0000
0000
0000
0000
0000
0000
ENDCHAR
STARTCHAR 160  
ENCODING 160
SWIDTH    16000    0 
DWIDTH    16    0 
BBX  16  24  0   -5
BITMAP
0000
0000
0000
0000
0000
0000
0000
0000
0000
0000
0000
0000
0000
0000
0000
0000
0000
0000
0000
0000
0000
0000
0000
0000
ENDCHAR
STARTCHAR 161  
ENCODING 161
SWIDTH    16000    0 
DWIDTH    16    0 
BBX  16  24  0   -5
BITMAP
0000
0000
0000
0000
0180
03C0
03C0
0180
0000
0180
0180
0180
0180
0180
03C0
03C0
03C0
03C0
03C0
0180
0000
0000
0000
0000
ENDCHAR
STARTCHAR 162  
ENCODING 162
SWIDTH    16000    0 
DWIDTH    16    0 
BBX  16  24  0   -5
BITMAP
0000
0000
0000
0000
01F0
03F8
0708
0C00
0C00
1800
3FF0
1800
3FE0
1800
0C00
0C00
0708
03F8
01F0
0000
0000
0000
0000
0000
ENDCHAR
STARTCHAR 163  
ENCODING 163
SWIDTH    16000    0 
DWIDTH    16    0 
BBX  16  24  0   -5
BITMAP
0000
0000
0000
0000
03E0
07F0
0E38
0C18
0C00
0C00
0C00
3FC0
3FC0
0600
0600
0C00
1F90
3FF8
20F0
0000
0000
0000
0000
0000
ENDCHAR
STARTCHAR 164  
ENCODING 164
SWIDTH    16000    0 
DWIDTH    16    0 
BBX  16  24  0   -5
BITMAP
0000
0000
0000
0000
0000
0000
0000
0000
0180
05A0
0A50
05A0
1BD8
1BD8
05A0
0A50
05A0
0180
0000
0000
0000
0000
0000
0000
ENDCHAR
STARTCHAR 165  
ENCODING 165
SWIDTH    16000    0 
DWIDTH    16    0 
BBX  16  24  0   -5
BITMAP
0000
0000
0000
0000
0000
300C
381C
1C38
0E70
07E0
03C0
1FF8
1FF8
0180
0180
1FF8
1FF8
0180
0180
0000
0000
0000
0000
0000
ENDCHAR
STARTCHAR 166  
ENCODING 166
SWIDTH    16000    0 
DWIDTH    16    0 
BBX  16  24  0   -5
BITMAP
0000
0000
0000
0000
0180
0180
0180
0180
0180
0180
0180
0000
0000
0000
0180
0180
0180
0180
0180
0180
0180
0000
0000
0000
ENDCHAR
STARTCHAR 167  
ENCODING 167
SWIDTH    16000    0 
DWIDTH    16    0 
BBX  16  24  0   -5
BITMAP
0000
0000
0000
0000
0000
07F0
0FF8
1C08
1800
1FE0
17F0
1018
1808
0FE8
07F8
0018
1038
1FF0
0FE0
0000
0000
0000
0000
0000
ENDCHAR
STARTCHAR 168  
ENCODING 168
SWIDTH    16000    0 
DWIDTH    16    0 
BBX  16  24  0   -5
BITMAP
0000
0000
0000
0100
0100
0100
0100
0180
0180
0180
01C0
05C0
0740
0700
0300
0300
0300
0100
0100
0100
0100
0000
0000
0000
ENDCHAR
STARTCHAR 169  
ENCODING 169
SWIDTH    16000    0 
DWIDTH    16    0 
BBX  16  24  0   -5
BITMAP
0000
0000
0000
0000
0000
0000
0000
0000
0000
0000
0000
0180
0F00
7FFE
00F0
0180
0000
0000
0000
0000
0000
0000
0000
0000
ENDCHAR
STARTCHAR 170  
ENCODING 170
SWIDTH    16000    0 
DWIDTH    16    0 
BBX  16  24  0   -5
BITMAP
0000
0000
0000
0000
0000
0004
0008
0010
0030
0060
00C0
01C0
0780
01E0
0380
0300
0600
0C00
0800
1000
2000
0000
0000
0000
ENDCHAR
STARTCHAR 171  
ENCODING 171
SWIDTH    16000    0 
DWIDTH    16    0 
BBX  16  24  0   -5
BITMAP
0000
0000
0000
0000
0000
2000
1000
0800
0C00
0600
0300
0380
01E0
0780
01C0
00C0
0060
0030
0010
0008
0004
0000
0000
0000
ENDCHAR
STARTCHAR 172  
ENCODING 172
SWIDTH    16000    0 
DWIDTH    16    0 
BBX  16  24  0   -5
BITMAP
0000
0000
0000
0000
0000
0280
1550
2BA8
1D70
2AA8
57D4
3BB8
57D4
57D4
3BB8
57D4
2AA8
1D70
2BA8
1550
0280
0000
0000
0000
ENDCHAR
STARTCHAR 173  
ENCODING 173
SWIDTH    16000    0 
DWIDTH    16    0 
BBX  16  24  0   -5
BITMAP
0000
0000
0000
0000
0840
0486
6488
1448
1250
0E50
C2A0
3FC0
03E6
3FD8
C7A0
1CF8
25A4
C924
12A2
1210
0408
0000
0000
0000
ENDCHAR
STARTCHAR 174  
ENCODING 174
SWIDTH    16000    0 
DWIDTH    16    0 
BBX  16  24  0   -5
BITMAP
0000
0000
0000
0000
4004
2288
3558
1AB0
1D70
2FE8
57D4
2FE8
2FE8
57D4
2FE8
1D70
1AB0
3558
2288
4004
0000
0000
0000
0000
ENDCHAR
STARTCHAR 175  
ENCODING 175
SWIDTH    16000    0 
DWIDTH    16    0 
BBX  16  24  0   -5
BITMAP
0000
0000
0000
0000
0000
0000
0000
0000
0000
0000
0000
0000
0000
0000
0000
0000
0000
0000
0000
0000
0000
0000
0000
0000
ENDCHAR
STARTCHAR 176  
ENCODING 176
SWIDTH    16000    0 
DWIDTH    16    0 
BBX  16  24  0   -5
BITMAP
0000
0000
0000
0000
0000
0000
0000
0000
0000
0000
0000
0000
0000
0000
0000
0000
0000
0000
0000
0000
0000
0000
0000
0000
ENDCHAR
STARTCHAR 177  
ENCODING 177
SWIDTH    16000    0 
DWIDTH    16    0 
BBX  16  24  0   -5
BITMAP
0000
0000
0000
0000
0000
0000
0000
0000
0000
0000
0000
0000
0000
0000
0000
0000
0000
0000
0000
0000
0000
0000
0000
0000
ENDCHAR
STARTCHAR 178  
ENCODING 178
SWIDTH    16000    0 
DWIDTH    16    0 
BBX  16  24  0   -5
BITMAP
0000
0000
0000
0000
0000
0000
0000
0000
0000
0000
0000
0000
0000
0000
0000
0000
0000
0000
0000
0000
0000
0000
0000
0000
ENDCHAR
STARTCHAR 179  
ENCODING 179
SWIDTH    16000    0 
DWIDTH    16    0 
BBX  16  24  0   -5
BITMAP
0000
0000
0000
0000
0000
0000
0000
0000
0000
0000
0000
0000
0000
0000
0000
0000
0000
0000
0000
0000
0000
0000
0000
0000
ENDCHAR
STARTCHAR 180  
ENCODING 180
SWIDTH    16000    0 
DWIDTH    16    0 
BBX  16  24  0   -5
BITMAP
0000
0000
0000
0000
0000
0000
0000
0000
0000
0000
0000
0000
0000
0000
0000
0000
0000
0000
0000
0000
0000
0000
0000
0000
ENDCHAR
STARTCHAR 181  
ENCODING 181
SWIDTH    16000    0 
DWIDTH    16    0 
BBX  16  24  0   -5
BITMAP
0000
0000
0000
0000
0000
0000
0000
0000
0000
0000
0000
0000
0000
0000
0000
0000
0000
0000
0000
0000
0000
0000
0000
0000
ENDCHAR
STARTCHAR 182  
ENCODING 182
SWIDTH    16000    0 
DWIDTH    16    0 
BBX  16  24  0   -5
BITMAP
0000
0000
0000
0000
0000
0000
0000
0000
0000
0000
0000
0000
0000
0000
0000
0000
0000
0000
0000
0000
0000
0000
0000
0000
ENDCHAR
STARTCHAR 183  
ENCODING 183
SWIDTH    16000    0 
DWIDTH    16    0 
BBX  16  24  0   -5
BITMAP
0000
0000
0000
0000
0000
0000
0000
0000
0000
0000
0000
0000
0000
0000
0000
0000
0000
0000
0000
0000
0000
0000
0000
0000
ENDCHAR
STARTCHAR 184  
ENCODING 184
SWIDTH    16000    0 
DWIDTH    16    0 
BBX  16  24  0   -5
BITMAP
0000
0000
0000
0000
0000
0000
0000
0000
0000
0000
0000
0000
0000
0000
0000
0000
0000
0000
0000
0000
0000
0000
0000
0000
ENDCHAR
STARTCHAR 185  
ENCODING 185
SWIDTH    16000    0 
DWIDTH    16    0 
BBX  16  24  0   -5
BITMAP
0000
0000
0000
0000
0000
0000
0000
0000
0000
0000
0000
0000
0000
0000
0000
0000
0000
0000
0000
0000
0000
0000
0000
0000
ENDCHAR
STARTCHAR 186  
ENCODING 186
SWIDTH    16000    0 
DWIDTH    16    0 
BBX  16  24  0   -5
BITMAP
0000
0000
0000
0000
0000
0000
0000
0000
0000
0000
0000
0000
0000
0000
0000
0000
0000
0000
0000
0000
0000
0000
0000
0000
ENDCHAR
STARTCHAR 187  
ENCODING 187
SWIDTH    16000    0 
DWIDTH    16    0 
BBX  16  24  0   -5
BITMAP
0000
0000
0000
0000
0000
0000
0000
0000
0000
0000
0000
0000
0000
0000
0000
0000
0000
0000
0000
0000
0000
0000
0000
0000
ENDCHAR
STARTCHAR 188  
ENCODING 188
SWIDTH    16000    0 
DWIDTH    16    0 
BBX  16  24  0   -5
BITMAP
0000
0000
0000
0000
0000
0000
0000
0000
0000
0000
0000
0000
0000
0000
0000
0000
0000
0000
0000
0000
0000
0000
0000
0000
ENDCHAR
STARTCHAR 189  
ENCODING 189
SWIDTH    16000    0 
DWIDTH    16    0 
BBX  16  24  0   -5
BITMAP
0000
0000
0000
0000
0000
0000
0000
0000
0000
0000
0000
0000
0000
0000
0000
0000
0000
0000
0000
0000
0000
0000
0000
0000
ENDCHAR
STARTCHAR 190  
ENCODING 190
SWIDTH    16000    0 
DWIDTH    16    0 
BBX  16  24  0   -5
BITMAP
0000
0000
0000
0000
0000
0000
0000
0000
0000
0000
0000
0000
0000
0000
0000
0000
0000
0000
0000
0000
0000
0000
0000
0000
ENDCHAR
STARTCHAR 191  
ENCODING 191
SWIDTH    16000    0 
DWIDTH    16    0 
BBX  16  24  0   -5
BITMAP
0000
0000
0000
0180
03C0
03C0
0180
0000
0180
0180
0380
0700
0E00
1C00
1800
1818
1C38
0FF0
07E0
0000
0000
0000
0000
0000
ENDCHAR
STARTCHAR 192  
ENCODING 192
SWIDTH    16000    0 
DWIDTH    16    0 
BBX  16  24  0   -5
BITMAP
0300
0180
0080
0000
0380
0380
06C0
06C0
06C0
0C60
0C60
0C60
1FF0
1FF0
3018
3018
3018
600C
600C
0000
0000
0000
0000
0000
ENDCHAR
STARTCHAR 193  
ENCODING 193
SWIDTH    16000    0 
DWIDTH    16    0 
BBX  16  24  0   -5
BITMAP
0180
0300
0200
0000
0380
0380
06C0
06C0
06C0
0C60
0C60
0C60
1FF0
1FF0
3018
3018
3018
600C
600C
0000
0000
0000
0000
0000
ENDCHAR
STARTCHAR 194  
ENCODING 194
SWIDTH    16000    0 
DWIDTH    16    0 
BBX  16  24  0   -5
BITMAP
0180
03C0
0660
0000
0380
0380
06C0
06C0
06C0
0C60
0C60
0C60
1FF0
1FF0
3018
3018
3018
600C
600C
0000
0000
0000
0000
0000
ENDCHAR
STARTCHAR 195  
ENCODING 195
SWIDTH    16000    0 
DWIDTH    16    0 
BBX  16  24  0   -5
BITMAP
0760
0FE0
0DC0
0000
0380
0380
06C0
06C0
06C0
0C60
0C60
0C60
1FF0
1FF0
3018
3018
3018
600C
600C
0000
0000
0000
0000
0000
ENDCHAR
STARTCHAR 196  
ENCODING 196
SWIDTH    16000    0 
DWIDTH    16    0 
BBX  16  24  0   -5
BITMAP
0000
0C60
0C60
0000
0380
0380
06C0
06C0
06C0
0C60
0C60
0C60
1FF0
1FF0
3018
3018
3018
600E
600E
0000
0000
0000
0000
0000
ENDCHAR
STARTCHAR 197  
ENCODING 197
SWIDTH    16000    0 
DWIDTH    16    0 
BBX  16  24  0   -5
BITMAP
0380
0440
0440
0440
0380
0380
06C0
06C0
06C0
0C60
0C60
0C60
1FF0
1FF0
3018
3018
3018
600E
600E
0000
0000
0000
0000
0000
ENDCHAR
STARTCHAR 198  
ENCODING 198
SWIDTH    16000    0 
DWIDTH    16    0 
BBX  16  24  0   -5
BITMAP
0000
0000
0000
0000
07FE
07FE
0D80
0D80
1980
1980
19FC
31FC
3180
7F80
7F80
6180
C180
C1FE
C1FE
0000
0000
0000
0000
0000
ENDCHAR
STARTCHAR 199  
ENCODING 199
SWIDTH    16000    0 
DWIDTH    16    0 
BBX  16  24  0   -5
BITMAP
0000
0000
0000
0000
07E0
1FF0
1C38
301C
700C
6000
6000
6000
6000
6000
700C
3018
3C38
1FF0
07E0
0100
0180
00C0
0780
0000
ENDCHAR
STARTCHAR 200  
ENCODING 200
SWIDTH    16000    0 
DWIDTH    16    0 
BBX  16  24  0   -5
BITMAP
0180
00C0
0040
0000
1FFC
1FFC
1800
1800
1800
1800
1FF8
1FF8
1800
1800
1800
1800
1800
1FFC
1FFC
0000
0000
0000
0000
0000
ENDCHAR
STARTCHAR 201  
ENCODING 201
SWIDTH    16000    0 
DWIDTH    16    0 
BBX  16  24  0   -5
BITMAP
00C0
0180
0100
0000
1FFC
1FFC
1800
1800
1800
1800
1FF8
1FF8
1800
1800
1800
1800
1800
1FFC
1FFC
0000
0000
0000
0000
0000
ENDCHAR
STARTCHAR 202  
ENCODING 202
SWIDTH    16000    0 
DWIDTH    16    0 
BBX  16  24  0   -5
BITMAP
00C0
01E0
0330
0000
1FFC
1FFC
1800
1800
1800
1800
1FF8
1FF8
1800
1800
1800
1800
1800
1FFC
1FFC
0000
0000
0000
0000
0000
ENDCHAR
STARTCHAR 203  
ENCODING 203
SWIDTH    16000    0 
DWIDTH    16    0 
BBX  16  24  0   -5
BITMAP
0000
0330
0330
0000
1FFC
1FFC
1800
1800
1800
1800
1FF8
1FF8
1800
1800
1800
1800
1800
1FFC
1FFC
0000
0000
0000
0000
0000
ENDCHAR
STARTCHAR 204  
ENCODING 204
SWIDTH    16000    0 
DWIDTH    16    0 
BBX  16  24  0   -5
BITMAP
0300
0180
0080
0000
07E0
07E0
0180
0180
0180
0180
0180
0180
0180
0180
0180
0180
0180
07E0
07E0
0000
0000
0000
0000
0000
ENDCHAR
STARTCHAR 205  
ENCODING 205
SWIDTH    16000    0 
DWIDTH    16    0 
BBX  16  24  0   -5
BITMAP
00C0
0180
0100
0000
07E0
07E0
0180
0180
0180
0180
0180
0180
0180
0180
0180
0180
0180
07E0
07E0
0000
0000
0000
0000
0000
ENDCHAR
STARTCHAR 206  
ENCODING 206
SWIDTH    16000    0 
DWIDTH    16    0 
BBX  16  24  0   -5
BITMAP
0180
03C0
0660
0000
07E0
07E0
0180
0180
0180
0180
0180
0180
0180
0180
0180
0180
0180
07E0
07E0
0000
0000
0000
0000
0000
ENDCHAR
STARTCHAR 207  
ENCODING 207
SWIDTH    16000    0 
DWIDTH    16    0 
BBX  16  24  0   -5
BITMAP
0000
0660
0660
0000
07E0
07E0
0180
0180
0180
0180
0180
0180
0180
0180
0180
0180
0180
07E0
07E0
0000
0000
0000
0000
0000
ENDCHAR
STARTCHAR 208  
ENCODING 208
SWIDTH    16000    0 
DWIDTH    16    0 
BBX  16  24  0   -5
BITMAP
0000
0000
0000
0000
3FC0
3FF0
3038
3018
300C
300C
FF0C
FF0C
300C
300C
300C
3018
3038
3FF0
3FC0
0000
0000
0000
0000
0000
ENDCHAR
STARTCHAR 209  
ENCODING 209
SWIDTH    16000    0 
DWIDTH    16    0 
BBX  16  24  0   -5
BITMAP
03B0
07F0
06E0
0000
300C
380C
3C0C
3C0C
360C
330C
330C
318C
30CC
30CC
306C
303C
303C
301C
300C
0000
0000
0000
0000
0000
ENDCHAR
STARTCHAR 210  
ENCODING 210
SWIDTH    16000    0 
DWIDTH    16    0 
BBX  16  24  0   -5
BITMAP
0300
0180
0080
0000
07E0
0FF0
1C38
300C
700E
6006
6006
6006
6006
6006
700E
300C
1C38
0FF0
07E0
0000
0000
0000
0000
0000
ENDCHAR
STARTCHAR 211  
ENCODING 211
SWIDTH    16000    0 
DWIDTH    16    0 
BBX  16  24  0   -5
BITMAP
00C0
0180
0100
0000
07E0
0FF0
1C38
300C
700E
6006
6006
6006
6006
6006
700E
300C
1C38
0FF0
07E0
0000
0000
0000
0000
0000
ENDCHAR
STARTCHAR 212  
ENCODING 212
SWIDTH    16000    0 
DWIDTH    16    0 
BBX  16  24  0   -5
BITMAP
0180
03C0
0660
0000
07E0
0FF0
1C38
300C
700E
6006
6006
6006
6006
6006
700E
300C
1C38
0FF0
07E0
0000
0000
0000
0000
0000
ENDCHAR
STARTCHAR 213  
ENCODING 213
SWIDTH    16000    0 
DWIDTH    16    0 
BBX  16  24  0   -5
BITMAP
03B0
07F0
06E0
0000
07E0
0FF0
1C38
300C
700E
6006
6006
6006
6006
6006
700E
300C
1C38
0FF0
07E0
0000
0000
0000
0000
0000
ENDCHAR
STARTCHAR 214  
ENCODING 214
SWIDTH    16000    0 
DWIDTH    16    0 
BBX  16  24  0   -5
BITMAP
0000
0660
0660
0000
07E0
0FF0
1C38
300C
700E
6006
6006
6006
6006
6006
700E
300C
1C38
0FF0
07E0
0000
0000
0000
0000
0000
ENDCHAR
STARTCHAR 215  
ENCODING 215
SWIDTH    16000    0 
DWIDTH    16    0 
BBX  16  24  0   -5
BITMAP
0000
0000
0000
0000
0000
0000
0000
0000
0000
0000
0000
0000
0000
0000
0000
0000
0000
0000
0000
0000
0000
0000
0000
0000
ENDCHAR
STARTCHAR 216  
ENCODING 216
SWIDTH    16000    0 
DWIDTH    16    0 
BBX  16  24  0   -5
BITMAP
0000
0000
0000
0000
07E6
0FFC
1C38
303C
707E
60C6
6086
6186
6106
6306
7E0E
3C0C
1C38
3FF0
67E0
0000
0000
0000
0000
0000
ENDCHAR
STARTCHAR 217  
ENCODING 217
SWIDTH    16000    0 
DWIDTH    16    0 
BBX  16  24  0   -5
BITMAP
0300
0180
0080
0000
300C
300C
300C
300C
300C
300C
300C
300C
300C
300C
300C
381C
1C38
0FF0
07E0
0000
0000
0000
0000
0000
ENDCHAR
STARTCHAR 218  
ENCODING 218
SWIDTH    16000    0 
DWIDTH    16    0 
BBX  16  24  0   -5
BITMAP
00C0
0180
0100
0000
300C
300C
300C
300C
300C
300C
300C
300C
300C
300C
300C
381C
1C38
0FF0
07E0
0000
0000
0000
0000
0000
ENDCHAR
STARTCHAR 219  
ENCODING 219
SWIDTH    16000    0 
DWIDTH    16    0 
BBX  16  24  0   -5
BITMAP
0180
03C0
0660
0000
300C
300C
300C
300C
300C
300C
300C
300C
300C
300C
300C
381C
1C38
0FF0
07E0
0000
0000
0000
0000
0000
ENDCHAR
STARTCHAR 220  
ENCODING 220
SWIDTH    16000    0 
DWIDTH    16    0 
BBX  16  24  0   -5
BITMAP
0000
0660
0660
0000
300C
300C
300C
300C
300C
300C
300C
300C
300C
300C
300C
381C
1C38
0FF0
07E0
0000
0000
0000
0000
0000
ENDCHAR
STARTCHAR 221  
ENCODING 221
SWIDTH    16000    0 
DWIDTH    16    0 
BBX  16  24  0   -5
BITMAP
00C0
0180
0100
0000
700E
300C
1818
1C38
0E70
0660
03C0
03C0
0180
0180
0180
0180
0180
0180
0180
0000
0000
0000
0000
0000
ENDCHAR
STARTCHAR 222  
ENCODING 222
SWIDTH    16000    0 
DWIDTH    16    0 
BBX  16  24  0   -5
BITMAP
0000
0000
0000
0000
3000
3000
3000
3FE0
3FF0
3038
3018
3018
3018
3038
3FF0
3FE0
3000
3000
3000
0000
0000
0000
0000
0000
ENDCHAR
STARTCHAR 223  
ENCODING 223
SWIDTH    16000    0 
DWIDTH    16    0 
BBX  16  24  0   -5
BITMAP
0000
0000
0000
0000
0F80
1FC0
38E0
3060
3060
30C0
3180
3180
30E0
3070
3018
3018
3738
33F0
31E0
0000
0000
0000
0000
0000
ENDCHAR
STARTCHAR 224  
ENCODING 224
SWIDTH    16000    0 
DWIDTH    16    0 
BBX  16  24  0   -5
BITMAP
0000
0000
0000
0000
0000
0300
0180
0080
0000
07E0
1FF0
1830
0070
07F0
1FB0
1830
1870
1FF0
0F98
0000
0000
0000
0000
0000
ENDCHAR
STARTCHAR 225  
ENCODING 225
SWIDTH    16000    0 
DWIDTH    16    0 
BBX  16  24  0   -5
BITMAP
0000
0000
0000
0000
0000
0180
0300
0200
0000
07E0
1FF0
1830
0070
07F0
1FB0
1830
1870
1FF0
0F98
0000
0000
0000
0000
0000
ENDCHAR
STARTCHAR 226  
ENCODING 226
SWIDTH    16000    0 
DWIDTH    16    0 
BBX  16  24  0   -5
BITMAP
0000
0000
0000
0000
0000
0180
03C0
0660
0000
07E0
1FF0
1830
0070
07F0
1FB0
1830
1870
1FF0
0F98
0000
0000
0000
0000
0000
ENDCHAR
STARTCHAR 227  
ENCODING 227
SWIDTH    16000    0 
DWIDTH    16    0 
BBX  16  24  0   -5
BITMAP
0000
0000
0000
0000
0000
0760
0FE0
0DC0
0000
07E0
1FF0
1830
0070
07F0
1FB0
1830
1870
1FF0
0F98
0000
0000
0000
0000
0000
ENDCHAR
STARTCHAR 228  
ENCODING 228
SWIDTH    16000    0 
DWIDTH    16    0 
BBX  16  24  0   -5
BITMAP
0000
0000
0000
0000
0000
0000
0660
0660
0000
07E0
1FF0
1830
0070
07F0
1FB0
1830
1870
1FF0
0F98
0000
0000
0000
0000
0000
ENDCHAR
STARTCHAR 229  
ENCODING 229
SWIDTH    16000    0 
DWIDTH    16    0 
BBX  16  24  0   -5
BITMAP
0000
0000
0000
0380
0440
0440
0440
0380
0000
07E0
1FF0
1830
0070
07F0
1FB0
1830
1870
1FF0
0F98
0000
0000
0000
0000
0000
ENDCHAR
STARTCHAR 230  
ENCODING 230
SWIDTH    16000    0 
DWIDTH    16    0 
BBX  16  24  0   -5
BITMAP
0000
0000
0000
0000
0000
0000
0000
0000
0000
3E70
7FFC
C38C
0F06
3FFE
73FE
C300
C78C
7EFC
3870
0000
0000
0000
0000
0000
ENDCHAR
STARTCHAR 231  
ENCODING 231
SWIDTH    16000    0 
DWIDTH    16    0 
BBX  16  24  0   -5
BITMAP
0000
0000
0000
0000
0000
0000
0000
0000
0000
07E0
0FF0
1C18
1800
1800
1800
1800
1C18
0FF0
07E0
0100
0180
00C0
0780
0000
ENDCHAR
STARTCHAR 232  
ENCODING 232
SWIDTH    16000    0 
DWIDTH    16    0 
BBX  16  24  0   -5
BITMAP
0000
0000
0000
0000
0000
0300
0180
0080
0000
07E0
0FF0
1C38
1818
1FF8
1FF8
1800
1C00
0FF0
07E0
0000
0000
0000
0000
0000
ENDCHAR
STARTCHAR 233  
ENCODING 233
SWIDTH    16000    0 
DWIDTH    16    0 
BBX  16  24  0   -5
BITMAP
0000
0000
0000
0000
0000
00C0
0180
0100
0000
07E0
0FF0
1C38
1818
1FF8
1FF8
1800
1C00
0FF0
07E0
0000
0000
0000
0000
0000
ENDCHAR
STARTCHAR 234  
ENCODING 234
SWIDTH    16000    0 
DWIDTH    16    0 
BBX  16  24  0   -5
BITMAP
0000
0000
0000
0000
0000
0180
03C0
0660
0000
07E0
0FF0
1C38
1818
1FF8
1FF8
1800
1C00
0FF0
07E0
0000
0000
0000
0000
0000
ENDCHAR
STARTCHAR 235  
ENCODING 235
SWIDTH    16000    0 
DWIDTH    16    0 
BBX  16  24  0   -5
BITMAP
0000
0000
0000
0000
0000
0000
0660
0660
0000
07E0
0FF0
1C38
1818
1FF8
1FF8
1800
1C00
0FF0
07E0
0000
0000
0000
0000
0000
ENDCHAR
STARTCHAR 236  
ENCODING 236
SWIDTH    16000    0 
DWIDTH    16    0 
BBX  16  24  0   -5
BITMAP
0000
0000
0000
0000
0000
0300
0180
0080
0000
0380
0380
0180
0180
0180
0180
0180
0180
03C0
03C0
0000
0000
0000
0000
0000
ENDCHAR
STARTCHAR 237  
ENCODING 237
SWIDTH    16000    0 
DWIDTH    16    0 
BBX  16  24  0   -5
BITMAP
0000
0000
0000
0000
0000
0180
0300
0200
0000
0380
0380
0180
0180
0180
0180
0180
0180
03C0
03C0
0000
0000
0000
0000
0000
ENDCHAR
STARTCHAR 238  
ENCODING 238
SWIDTH    16000    0 
DWIDTH    16    0 
BBX  16  24  0   -5
BITMAP
0000
0000
0000
0000
0000
0180
03C0
0660
0000
0380
0380
0180
0180
0180
0180
0180
0180
03C0
03C0
0000
0000
0000
0000
0000
ENDCHAR
STARTCHAR 239  
ENCODING 239
SWIDTH    16000    0 
DWIDTH    16    0 
BBX  16  24  0   -5
BITMAP
0000
0000
0000
0000
0000
0000
0660
0660
0000
0380
0380
0180
0180
0180
0180
0180
0180
03C0
03C0
0000
0000
0000
0000
0000
ENDCHAR
STARTCHAR 240  
ENCODING 240
SWIDTH    16000    0 
DWIDTH    16    0 
BBX  16  24  0   -5
BITMAP
0000
0000
0000
0000
0600
0360
03C0
06C0
0060
07F0
0FF0
1C38
1818
1818
1818
1818
1C38
0FF0
07E0
0000
0000
0000
0000
0000
ENDCHAR
STARTCHAR 241  
ENCODING 241
SWIDTH    16000    0 
DWIDTH    16    0 
BBX  16  24  0   -5
BITMAP
0000
0000
0000
0000
0000
0730
0FF0
0EE0
0000
1BE0
1FF0
1C38
1818
1818
1818
1818
1818
1818
1818
0000
0000
0000
0000
0000
ENDCHAR
STARTCHAR 242  
ENCODING 242
SWIDTH    16000    0 
DWIDTH    16    0 
BBX  16  24  0   -5
BITMAP
0000
0000
0000
0000
0000
0300
0180
0080
0000
07E0
0FF0
1C38
1818
1818
1818
1818
1C38
0FF0
07E0
0000
0000
0000
0000
0000
ENDCHAR
STARTCHAR 243  
ENCODING 243
SWIDTH    16000    0 
DWIDTH    16    0 
BBX  16  24  0   -5
BITMAP
0000
0000
0000
0000
0000
00C0
0180
0100
0000
07E0
0FF0
1C38
1818
1818
1818
1818
1C38
0FF0
07E0
0000
0000
0000
0000
0000
ENDCHAR
STARTCHAR 244  
ENCODING 244
SWIDTH    16000    0 
DWIDTH    16    0 
BBX  16  24  0   -5
BITMAP
0000
0000
0000
0000
0000
0180
03C0
0660
0000
07E0
0FF0
1C38
1818
1818
1818
1818
1C38
0FF0
07E0
0000
0000
0000
0000
0000
ENDCHAR
STARTCHAR 245  
ENCODING 245
SWIDTH    16000    0 
DWIDTH    16    0 
BBX  16  24  0   -5
BITMAP
0000
0000
0000
0000
0000
0760
0FE0
0DC0
0000
07E0
0FF0
1C38
1818
1818
1818
1818
1C38
0FF0
07E0
0000
0000
0000
0000
0000
ENDCHAR
STARTCHAR 246  
ENCODING 246
SWIDTH    16000    0 
DWIDTH    16    0 
BBX  16  24  0   -5
BITMAP
0000
0000
0000
0000
0000
0000
0660
0660
0000
07E0
0FF0
1C38
1818
1818
1818
1818
1C38
0FF0
07E0
0000
0000
0000
0000
0000
ENDCHAR
STARTCHAR 247  
ENCODING 247
SWIDTH    16000    0 
DWIDTH    16    0 
BBX  16  24  0   -5
BITMAP
0000
0000
0000
0000
0000
0000
0000
0000
0000
0000
0000
0000
0000
0000
0000
0000
0000
0000
0000
0000
0000
0000
0000
0000
ENDCHAR
STARTCHAR 248  
ENCODING 248
SWIDTH    16000    0 
DWIDTH    16    0 
BBX  16  24  0   -5
BITMAP
0000
0000
0000
0000
0000
0000
0000
0000
0000
07E8
0FF0
1C38
1858
1898
1918
1A18
1C38
0FF0
17E0
0000
0000
0000
0000
0000
ENDCHAR
STARTCHAR 249  
ENCODING 249
SWIDTH    16000    0 
DWIDTH    16    0 
BBX  16  24  0   -5
BITMAP
0000
0000
0000
0000
0000
0300
0180
0080
0000
1818
1818
1818
1818
1818
1818
1818
1C38
0FF8
07D8
0000
0000
0000
0000
0000
ENDCHAR
STARTCHAR 250  
ENCODING 250
SWIDTH    16000    0 
DWIDTH    16    0 
BBX  16  24  0   -5
BITMAP
0000
0000
0000
0000
0000
00C0
0180
0100
0000
1818
1818
1818
1818
1818
1818
1818
1C38
0FF8
07D8
0000
0000
0000
0000
0000
ENDCHAR
STARTCHAR 251  
ENCODING 251
SWIDTH    16000    0 
DWIDTH    16    0 
BBX  16  24  0   -5
BITMAP
0000
0000
0000
0000
0000
0180
03C0
0660
0000
1818
1818
1818
1818
1818
1818
1818
1C38
0FF8
07D8
0000
0000
0000
0000
0000
ENDCHAR
STARTCHAR 252  
ENCODING 252
SWIDTH    16000    0 
DWIDTH    16    0 
BBX  16  24  0   -5
BITMAP
0000
0000
0000
0000
0000
0000
0660
0660
0000
1818
1818
1818
1818
1818
1818
1818
1C38
0FF8
07D8
0000
0000
0000
0000
0000
ENDCHAR
STARTCHAR 253  
ENCODING 253
SWIDTH    16000    0 
DWIDTH    16    0 
BBX  16  24  0   -5
BITMAP
0000
0000
0000
0000
0000
00C0
0180
0100
0000
1818
1818
1818
1818
1818
1818
1818
1C38
0FF8
07D8
0018
1838
1FF0
0FE0
0000
ENDCHAR
STARTCHAR 254  
ENCODING 254
SWIDTH    16000    0 
DWIDTH    16    0 
BBX  16  24  0   -5
BITMAP
0000
0000
0000
0000
0000
0000
0000
1800
1800
1800
1800
1FE0
1FF0
1818
1818
1818
1818
1FF0
1FE0
1800
1800
1800
1800
0000
ENDCHAR
STARTCHAR 255  
ENCODING 255
SWIDTH    16000    0 
DWIDTH    16    0 
BBX  16  24  0   -5
BITMAP
0000
0000
0000
0000
0000
0000
0660
0660
0000
1818
1818
1818
1818
1818
1818
1818
1C38
0FF8
07D8
0018
1838
1FF0
0FE0
0000
ENDCHAR
ENDFONT
